<svg width="219" height="42" viewBox="0 0 219 42" fill="none" xmlns="http://www.w3.org/2000/svg">
<g clip-path="url(#clip0_3000_121)">
<path d="M0 5C0 2.23858 2.23858 0 5 0H212.164C215.547 0 217.954 3.29047 216.929 6.51499L207.862 35.03C206.543 39.1808 202.688 42 198.333 42H5C2.23857 42 0 39.7614 0 37V5Z" fill="#E9CDF4"/>
<path d="M16.024 13.856L15.224 18.528H22.552L21.816 22.656H14.488L13.592 27.68H21.88L21.112 32H7.352L11.32 9.536H25.08L24.312 13.856H16.024ZM38.7125 13.952C40.5045 13.952 41.9125 14.4533 42.9365 15.456C43.9605 16.4587 44.4725 17.856 44.4725 19.648C44.4725 20.2453 44.4085 20.8853 44.2805 21.568L42.4245 32H36.9845L38.7125 22.304C38.7765 21.9413 38.8085 21.6213 38.8085 21.344C38.8085 20.448 38.5525 19.7547 38.0405 19.264C37.5498 18.7733 36.8565 18.528 35.9605 18.528C34.8938 18.528 33.9978 18.8587 33.2725 19.52C32.5472 20.1813 32.0778 21.1093 31.8645 22.304V22.144L30.1365 32H24.6645L27.8005 14.144H33.2725L32.8565 16.544C33.5605 15.7547 34.4138 15.1253 35.4165 14.656C36.4405 14.1867 37.5392 13.952 38.7125 13.952ZM55.155 26.88L61.299 14.144H67.155L57.651 32H50.867L47.699 14.144H53.523L55.155 26.88ZM72.4983 12.288C71.6449 12.288 70.9623 12.064 70.4503 11.616C69.9596 11.1467 69.7143 10.56 69.7143 9.856C69.7143 8.896 70.0876 8.07467 70.8343 7.392C71.5809 6.70933 72.4876 6.368 73.5543 6.368C74.4076 6.368 75.0796 6.60266 75.5703 7.072C76.0609 7.52 76.3063 8.10667 76.3063 8.832C76.3063 9.77067 75.9329 10.5813 75.1863 11.264C74.4396 11.9467 73.5436 12.288 72.4983 12.288ZM74.8663 14.144L71.7303 32H66.2583L69.3943 14.144H74.8663ZM83.8558 32.256C82.3198 32.256 80.9544 31.9467 79.7598 31.328C78.5651 30.7093 77.6371 29.8347 76.9758 28.704C76.3358 27.5733 76.0158 26.2613 76.0158 24.768C76.0158 22.7413 76.4958 20.896 77.4557 19.232C78.4158 17.568 79.7384 16.2667 81.4238 15.328C83.1091 14.368 84.9864 13.888 87.0558 13.888C88.5918 13.888 89.9571 14.208 91.1518 14.848C92.3678 15.4667 93.3064 16.3413 93.9678 17.472C94.6291 18.6027 94.9598 19.9147 94.9598 21.408C94.9598 23.456 94.4691 25.312 93.4878 26.976C92.5278 28.6187 91.1944 29.9093 89.4878 30.848C87.8024 31.7867 85.9251 32.256 83.8558 32.256ZM84.6238 27.552C85.5198 27.552 86.3198 27.2853 87.0238 26.752C87.7491 26.1973 88.3038 25.4933 88.6878 24.64C89.0931 23.7653 89.2958 22.8587 89.2958 21.92C89.2958 20.8533 89.0078 20.032 88.4318 19.456C87.8558 18.88 87.1304 18.592 86.2558 18.592C85.3384 18.592 84.5278 18.8693 83.8238 19.424C83.1411 19.9573 82.6078 20.6613 82.2238 21.536C81.8398 22.4107 81.6478 23.328 81.6478 24.288C81.6478 25.3333 81.9251 26.144 82.4798 26.72C83.0344 27.2747 83.7491 27.552 84.6238 27.552ZM110.901 32.256C109.493 32.256 108.224 32.032 107.093 31.584C105.984 31.136 105.109 30.5173 104.469 29.728C103.829 28.9173 103.509 27.9893 103.509 26.944C103.509 26.7947 103.53 26.528 103.573 26.144H108.853C108.81 26.8053 109.002 27.3387 109.429 27.744C109.877 28.128 110.506 28.32 111.317 28.32C112 28.32 112.565 28.192 113.013 27.936C113.461 27.68 113.685 27.3173 113.685 26.848C113.685 26.4 113.44 26.048 112.949 25.792C112.48 25.5147 111.69 25.184 110.581 24.8C109.429 24.416 108.458 24.0427 107.669 23.68C106.901 23.296 106.24 22.752 105.685 22.048C105.13 21.344 104.853 20.4587 104.853 19.392C104.853 18.3467 105.162 17.408 105.781 16.576C106.4 15.7227 107.264 15.0613 108.373 14.592C109.504 14.1227 110.805 13.888 112.277 13.888C113.749 13.888 115.029 14.1333 116.117 14.624C117.205 15.0933 118.048 15.7547 118.645 16.608C119.242 17.4613 119.541 18.4213 119.541 19.488L119.509 19.968H114.549C114.592 19.328 114.4 18.816 113.973 18.432C113.546 18.048 112.938 17.856 112.149 17.856C111.53 17.856 111.018 17.984 110.613 18.24C110.229 18.496 110.037 18.848 110.037 19.296C110.037 19.7653 110.293 20.16 110.805 20.48C111.338 20.7787 112.16 21.12 113.269 21.504C114.421 21.888 115.37 22.272 116.117 22.656C116.885 23.0187 117.536 23.5413 118.069 24.224C118.624 24.8853 118.901 25.7173 118.901 26.72C118.901 27.872 118.549 28.864 117.845 29.696C117.162 30.528 116.213 31.168 114.997 31.616C113.802 32.0427 112.437 32.256 110.901 32.256ZM129.481 32.256C127.945 32.256 126.579 31.9467 125.385 31.328C124.19 30.7093 123.262 29.8347 122.601 28.704C121.961 27.5733 121.641 26.2613 121.641 24.768C121.641 22.7413 122.121 20.896 123.081 19.232C124.041 17.568 125.363 16.2667 127.049 15.328C128.734 14.368 130.611 13.888 132.681 13.888C134.217 13.888 135.582 14.208 136.777 14.848C137.993 15.4667 138.931 16.3413 139.593 17.472C140.254 18.6027 140.585 19.9147 140.585 21.408C140.585 23.456 140.094 25.312 139.113 26.976C138.153 28.6187 136.819 29.9093 135.113 30.848C133.427 31.7867 131.55 32.256 129.481 32.256ZM130.249 27.552C131.145 27.552 131.945 27.2853 132.649 26.752C133.374 26.1973 133.929 25.4933 134.313 24.64C134.718 23.7653 134.921 22.8587 134.921 21.92C134.921 20.8533 134.633 20.032 134.057 19.456C133.481 18.88 132.755 18.592 131.881 18.592C130.963 18.592 130.153 18.8693 129.449 19.424C128.766 19.9573 128.233 20.6613 127.849 21.536C127.465 22.4107 127.273 23.328 127.273 24.288C127.273 25.3333 127.55 26.144 128.105 26.72C128.659 27.2747 129.374 27.552 130.249 27.552ZM151.36 8.32L147.168 32H141.696L145.888 8.32H151.36ZM159.293 32.256C157.757 32.256 156.392 31.9467 155.197 31.328C154.003 30.7093 153.075 29.8347 152.413 28.704C151.773 27.5733 151.453 26.2613 151.453 24.768C151.453 22.7413 151.933 20.896 152.893 19.232C153.853 17.568 155.176 16.2667 156.861 15.328C158.547 14.368 160.424 13.888 162.493 13.888C164.029 13.888 165.395 14.208 166.589 14.848C167.805 15.4667 168.744 16.3413 169.405 17.472C170.067 18.6027 170.397 19.9147 170.397 21.408C170.397 23.456 169.907 25.312 168.925 26.976C167.965 28.6187 166.632 29.9093 164.925 30.848C163.24 31.7867 161.363 32.256 159.293 32.256ZM160.061 27.552C160.957 27.552 161.757 27.2853 162.461 26.752C163.187 26.1973 163.741 25.4933 164.125 24.64C164.531 23.7653 164.733 22.8587 164.733 21.92C164.733 20.8533 164.445 20.032 163.869 19.456C163.293 18.88 162.568 18.592 161.693 18.592C160.776 18.592 159.965 18.8693 159.261 19.424C158.579 19.9573 158.045 20.6613 157.661 21.536C157.277 22.4107 157.085 23.328 157.085 24.288C157.085 25.3333 157.363 26.144 157.917 26.72C158.472 27.2747 159.187 27.552 160.061 27.552ZM179.427 23.04C179.747 21.2053 180.376 19.5947 181.315 18.208C182.253 16.8213 183.384 15.7547 184.707 15.008C186.029 14.2613 187.427 13.888 188.899 13.888C190.157 13.888 191.213 14.144 192.067 14.656C192.92 15.168 193.539 15.84 193.923 16.672L194.371 14.144H199.843L196.675 32H191.203L191.683 29.472C191 30.304 190.136 30.976 189.091 31.488C188.045 32 186.893 32.256 185.635 32.256C184.376 32.256 183.256 31.968 182.275 31.392C181.315 30.816 180.568 30.0053 180.035 28.96C179.501 27.8933 179.235 26.6453 179.235 25.216C179.235 24.5333 179.299 23.808 179.427 23.04ZM192.803 23.072C192.867 22.688 192.899 22.336 192.899 22.016C192.899 20.9707 192.589 20.1493 191.971 19.552C191.373 18.9547 190.605 18.656 189.667 18.656C188.579 18.656 187.587 19.0507 186.691 19.84C185.795 20.608 185.229 21.6747 184.995 23.04C184.931 23.424 184.899 23.776 184.899 24.096C184.899 25.1413 185.197 25.9733 185.795 26.592C186.413 27.1893 187.181 27.488 188.099 27.488C189.187 27.488 190.179 27.0933 191.075 26.304C191.971 25.5147 192.547 24.4373 192.803 23.072Z" fill="#9B59B6"/>
</g>
<defs>
<clipPath id="clip0_3000_121">
<rect width="219" height="42" fill="white"/>
</clipPath>
</defs>
</svg>
