<?xml version="1.0" encoding="UTF-8"?>
<svg id="Capa_2" data-name="Capa 2" xmlns="http://www.w3.org/2000/svg" viewBox="0 0 866 378.87">
  <defs>
    <style>
      .cls-1 {
        fill: #000;
      }

      .cls-1, .cls-2 {
        stroke-width: 0px;
      }

      .cls-2 {
        fill: #217732;
      }
    </style>
  </defs>
  <g id="Capa_1-2" data-name="Capa 1">
    <g>
      <g>
        <path class="cls-1" d="M640.69,196.39c-2.81-.87-5.75-1.33-8.63-2.03-3.02-.73-6.31-.99-8.95-2.42-2.15-1.17-4.85-3.77-4.84-5.72,0-1.98,2.73-5.1,4.83-5.67,4.38-1.19,9.26-1.82,13.72-1.22,6.35.87,12.52,3.05,19.06,4.74,1.25-4.07,3.97-15.15,3.97-15.15-7.96-3.57-14.95-5.03-19.71-5.68-6.2-.85-13.76-1.8-22.65.93-4.19,1.29-9.3,2.84-13.72,7.6-4.26,4.58-6.69,10.72-6.66,17.58.04,11.54,5.52,17.06,19.98,20.09,4.27.89,8.59,1.55,12.82,2.58,3.44.85,6.65,2.29,6.58,6.59-.07,4.13-2.48,6.43-6.45,7.28-1.51.33-3.04.64-4.58.75-10.34.74-20.02-1.7-29.54-6.67-2.42,5.55-4.7,10.8-7.1,16.31,2.26,1.02,3.91,1.84,5.61,2.54,10.62,4.33,21.84,5.47,33.04,4.21,6.3-.71,12.91-2.64,18.38-5.74,10.2-5.76,11.85-15.92,10.9-26.51-.85-9.46-8.51-12.02-16.07-14.4Z"/>
        <path class="cls-1" d="M556.06,179.16h35.12c.88-5.55,1.7-10.72,2.54-16.01-1.08-.27-1.66-.53-2.24-.54-16.68,0-33.36-.06-50.04.16-1.14.01-3.05,1.88-3.27,3.12-2.94,16.57-5.67,33.18-8.4,49.79-1.48,9.03-4.57,27.7-4.57,27.7,0,0,35.71.05,52.71,0,.9,0,2.43-1.03,2.6-1.81,1.02-4.78,1.73-9.63,2.63-15.01h-35.28c.96-5.66,1.83-10.78,2.74-16.2,10.05,0,19.55.08,29.05-.1,1.28-.02,3.4-1.17,3.66-2.19,1.14-4.32,1.73-8.78,2.68-14.07h-32.44c.91-5.4,1.68-9.95,2.51-14.83Z"/>
        <path class="cls-1" d="M694.12,179.99c3.48-.62,7.22-1.21,10.63-.62,6.91,1.2,13.68,3.2,20.87,4.96,1.5-4.73,3.22-10.17,5.07-15.99-5.31-1.44-9.88-3-14.59-3.88-11.63-2.16-23.17-2.57-34.37,2.36-13.07,5.76-16.07,17.62-13.73,29.02.68,3.32,3.67,6.78,6.57,8.9,3.11,2.27,7.27,3.34,11.12,4.4,5.23,1.44,10.72,2.03,15.84,3.72,1.91.63,4.31,3.35,4.32,5.13,0,2.33-1.7,5.1-3.5,6.85-1.34,1.3-3.98,1.6-6.09,1.81-10.52,1-20.42-1.13-30.08-6.65-2.51,5.68-4.77,10.81-7,15.88,12.93,7.52,36.27,9.96,49.78,5.37,11.41-3.88,18.71-15.19,17.93-27.84-.6-9.85-5.84-14.7-19.29-17.85-.45-.11-.93-.1-1.39-.2-4.09-.93-8.21-1.77-12.27-2.85-3.21-.85-5.89-2.63-5.74-6.29.14-3.51,2.65-5.64,5.93-6.22Z"/>
        <path class="cls-1" d="M292.42,243.37c.92,0,2.48-1.02,2.65-1.8,1.02-4.78,1.73-9.63,2.63-15.03h-35.5c.73-4.51,1.49-8.48,1.99-12.48.35-2.85,1.63-3.86,4.55-3.81,8.26.14,16.53.1,24.79-.15,1.49-.04,3.92-1.11,4.23-2.19,1.22-4.29,1.78-8.77,2.72-13.96h-32.79c.63-3.79,1.53-6.85,1.56-9.92.05-4.36,2.26-5,5.96-4.91,8.88.24,17.78.23,26.67.08,1.32-.02,3.54-1.13,3.77-2.11,1.1-4.63,1.65-9.38,2.45-14.44-17.88,0-35.16-.06-52.43.16-1.04.01-2.72,2.17-2.97,3.54-2.92,15.94-5.63,31.93-8.38,47.9-1.64,9.49-3.27,18.99-5.03,29.19,18.22,0,35.67.03,53.12-.08Z"/>
        <path class="cls-1" d="M395.04,243.53c3.72.28,4.84-1.39,5.33-4.61,1.03-6.75,2.27-13.47,3.52-20.8,6.48,0,12.39.09,18.31-.02,18.34-.34,29.24-10.2,31.54-28.46,1.88-14.91-4.39-24.7-19.04-26.14-13.38-1.31-26.98-.28-40.73-.28-4.64,26.33-9.32,52.94-14.12,80.22,5.31,0,10.28-.29,15.19.09ZM410.84,179.58c5.92,0,11.61-.25,17.26.08,3.6.23,5.37,2.8,5.41,6.43.14,10.98-4.08,16.46-14.56,15.65-3.82-.29-7.68-.05-12.1-.05,1.41-7.78,2.7-14.89,4-22.12Z"/>
        <path class="cls-1" d="M329.3,204.22c-4.06,4.94-7.92,10.04-11.84,15.1-5.96,7.7-11.9,15.43-18.59,24.1,7.26,0,13.29.21,19.29-.13,1.79-.1,4.03-1.34,5.15-2.78,5.99-7.73,11.69-15.68,18.08-24.36,3.53,8.52,6.61,16.15,9.89,23.68.59,1.36,1.99,3.28,3.09,3.34,6.61.31,13.23.16,20.5.16-.84-2.12-1.34-3.55-1.96-4.92-4.7-10.36-9.24-20.79-14.25-31-1.94-3.96-1.41-6.69,1.31-9.96,7.47-8.99,14.64-18.24,21.9-27.41,1.69-2.13,3.26-4.34,5.59-7.44-6.28,0-11.39.3-16.45-.09-4.39-.34-7.13,1.18-9.61,4.82-4.51,6.63-9.57,12.89-14.99,20.1-3.2-7.88-5.93-14.81-8.85-21.66-.54-1.27-1.79-3.15-2.77-3.19-6.73-.28-13.48-.15-21.12-.15,5.78,12.81,10.93,24.46,16.32,36.01,1.1,2.35.88,3.88-.71,5.81Z"/>
        <path class="cls-1" d="M525.89,184.32c.34-14.23-5.67-20.79-20.01-21.38-12.3-.5-24.63-.23-36.94-.39-2.46-.04-3.44.74-3.89,3.36-4.1,23.96-13.73,77.48-13.73,77.48l19.5.08s3.46-17.2,4.2-23.52c.46-3.9,2.13-5.19,5.7-4.54,2.44.43,6.44.32,7.01,1.64,3.58,8.23,9.49,26.34,9.49,26.34h22.04s-7.96-20.12-11.8-29.82c14.81-7.31,18.13-15.37,18.45-29.23ZM494.5,199.77c-4.96-.08-9.9-.02-15.45-.02,1.08-6.56,1.94-12.39,3.1-18.17.2-.98,1.7-2.4,2.6-2.41,5.12-.04,10.31-.16,15.31.72,2.02.37,4.86,2.96,5.19,4.91,1.32,7.71-.74,15.13-10.75,14.97Z"/>
      </g>
      <path class="cls-2" d="M858.8,15.9c-4.26-.19-8.6-.16-12.79.43-17.82,2.5-33.43,10-47.64,20.39-12.36,9.05-24.55,18.29-36.97,27.27-1.49,1.07-4.26,1.91-5.78,1.31-20.66-8.04-41.2-16.34-61.94-24.65.66-2.42,1.9-4.78,1.76-7.06-.16-2.62-.77-6.27-2.6-7.49-2.09-1.39-6.03-1.37-8.64-.51-3.01.99-5.38,3.65-8.15,5.41-1.06.66-2.74,1.48-3.63,1.11-7.94-3.34-15.76-6.93-23.72-10.5.66-2.4,1.83-4.5,1.64-6.49-.28-2.82-.7-6.79-2.62-7.98-2.19-1.39-6.22-.84-9.17-.09-2.45.62-4.36,3.03-6.77,4.11-1.59.72-3.9,1.17-5.44.6-7.65-2.89-15.13-6.21-22.71-9.27-12.92-5.19-25.45-2.22-35.32,8.44,45.66,30.89,137.2,92.83,137.2,92.83l-55.61,45.11h53.33l29.6-17.35s25.76,83.89,38.56,125.57c13.64-5.04,20.67-13.47,18.81-27.34-.04-.3.05-.62,0-.92-.69-3.72.6-6.28,4.26-8.05,2.34-1.15,4.47-2.94,6.29-4.81,4.46-4.61,2.65-10.28-3.69-11.92-1.05-.28-2.22-.41-3.29-.28-3.52.45-4.37-1.28-4.27-4.26.1-3.06.34-6.21-.34-9.14-1.57-6.72.53-11.12,6.94-14.47,5.87-3.06,7.95-7.5,6.55-11.46-1.86-5.28-6.53-5.07-11.04-4.83-2.88.17-3.86-.94-3.96-3.69-.61-17.7-1.42-35.39-1.97-53.1-.04-1.48.95-3.51,2.17-4.41,8.42-6.2,17.15-12.04,25.57-18.25,13.84-10.18,28.02-20.03,39.3-33.05,5.7-6.59,11.24-13.28,13.07-22,1.07-5.1-1.73-9.01-6.98-9.25Z"/>
      <path class="cls-2" d="M454.16,257.09h12.2c-25.07,13.72-50.16,27.45-75.76,40.09-51.68,25.52-105.15,46.7-160.45,62.85-32.27,9.44-65.13,16.28-98.74,18.31-25.25,1.53-50.31-.03-74.62-7.87-15.75-5.09-30.05-12.81-41.34-25.43C.16,327.96-2.33,307.63,1.73,286.02c3.91-20.81,14.32-38.64,26.95-55.11,7.19-9.38,15.26-18.05,22.99-26.99,1.26-1.46,2.81-2.67,3.25-3.06-7.89,12.76-16.97,26.25-24.82,40.43-9.12,16.52-16.05,34.03-16.29,53.45-.23,17.94,7.2,32.26,20.72,43.42,15.9,13.15,34.75,18.97,54.72,21.22,35.56,4.02,70.58-.24,105.35-7.73,55.3-11.88,108.75-29.97,160.98-51.53,33.12-13.67,65.83-28.39,98.58-43.03Z"/>
      <path class="cls-2" d="M147.93,243.4c17.15,0,34.33.47,51.47-.26,10.97-.46,20.34-5.9,22.96-17.11,3.48-14.92,5.41-30.2,7.54-45.4.77-5.46-1.79-10.71-6.48-13.32-4.49-2.5-9.92-4.34-15.03-4.56-14.77-.62-29.58-.25-44.39-.36-2.48-.03-3.5.68-3.95,3.31-3.29,19.33-6.8,38.61-10.22,57.91-1.14,6.43-2.21,12.87-3.29,19.13.84.41,1.13.66,1.4.66ZM178.58,183.13c.22-1.11,2.2-2.62,3.42-2.68,5.66-.26,11.34-.33,17-.02,6.53.37,9.65,4.37,8.68,10.72-1.27,8.21-2.62,16.42-4.06,24.6-.98,5.65-4.51,9.51-9.92,9.81-7.35.41-14.73.1-22.87.1,2.64-14.79,5.06-28.69,7.74-42.54Z"/>
      <path class="cls-2" d="M70.11,243.41c15.11.04,30.23.3,45.33.02,20.99-.39,29.45-16.67,26.82-34.44-.52-3.52-3.63-7.25-6.53-9.72-5.45-4.64-12.6-4.24-19.33-4.71-4.69-.33-9.42-.45-14.06-1.13-3.18-.47-5.6-2.59-5.57-6.06.03-3.7,2.31-6.14,5.83-7.08,1.79-.48,3.74-.4,5.62-.41,10.7-.04,21.41.04,32.11-.14,1.38-.02,3.69-1.08,3.94-2.07,1.23-4.82,1.9-9.77,2.76-14.66-.92-.31-1.36-.58-1.8-.58-15.43.02-30.86-.13-46.27.27-3.76.1-7.75,1.5-11.16,3.23-10.56,5.34-12.87,15.05-12.86,25.82.01,11.33,5.82,17.76,17.27,18.68,7.68.62,15.38.92,23.06,1.42,3.13.2,6.15,1.65,5.78,4.9-.33,2.89-2.02,6.07-4.07,8.18-1.33,1.37-4.4,1.39-6.7,1.44-8.34.15-16.69.09-25.03.05q-15.93-.08-17.59,15.63c-.03.29.13.59.24,1.08.69.1,1.45.29,2.21.29Z"/>
    </g>
  </g>
</svg>